<?xml version="1.0" encoding="utf-8"?>
<!-- Generator: Adobe Illustrator 27.6.1, SVG Export Plug-In . SVG Version: 6.00 Build 0)  -->
<svg version="1.1" id="Ebene_1" xmlns="http://www.w3.org/2000/svg" xmlns:xlink="http://www.w3.org/1999/xlink" x="0px" y="0px"
	 viewBox="0 0 192 192" style="enable-background:new 0 0 192 192;" xml:space="preserve">
<style type="text/css">
	.st0{fill:#FFFFFF;}
	.st1{fill:#009845;}
</style>
<path class="st0" d="M154.22,178H37.78C24.64,178,14,167.36,14,154.22V37.78C14,24.64,24.64,14,37.78,14h116.45
	C167.36,14,178,24.64,178,37.78v116.45C178,167.36,167.36,178,154.22,178z"/>
<path class="st1" d="M70.68,36.92h-8.44c-14.22,0-25.32,11.34-25.32,25.32v9.89c0,2.24-0.89,4.38-2.47,5.97L22.52,90.04
	c-3.3,3.3-3.3,8.64,0,11.93l11.94,11.94c1.58,1.58,2.47,3.72,2.47,5.96v9.89c0,13.98,11.34,25.32,25.32,25.32h8.44
	c4.67,0,8.44-3.77,8.44-8.44c0-4.67-3.77-8.44-8.44-8.44h-8.44c-4.64,0-8.44-3.8-8.44-8.44v-9.89c0-6.71-2.67-13.15-7.41-17.9
	L40.42,96l5.97-5.97c4.75-4.74,7.42-11.2,7.42-17.9v-9.89c0-4.64,3.8-8.44,8.44-8.44h8.44c4.67,0,8.44-3.78,8.44-8.44
	S75.35,36.92,70.68,36.92z M169.48,90.04L157.55,78.1c-1.57-1.6-2.47-3.97-2.47-5.97v-9.89c0-13.98-11.34-25.32-25.32-25.32h-8.44
	c-4.67,0-8.44,3.78-8.44,8.2s3.77,8.68,8.2,8.68h8.68c4.64,0,8.44,3.8,8.44,8.44v9.89c0,6.71,2.67,13.15,7.41,17.9L151.6,96
	l-5.97,5.97c-4.76,4.74-7.43,11.17-7.43,17.9v9.89c0,4.64-3.8,8.44-8.44,8.44h-8.44c-4.67,0-8.44,3.77-8.44,8.2s3.77,8.68,8.2,8.68
	h8.68c13.98,0,25.32-11.34,25.32-25.32v-9.89c0-2.24,0.89-4.38,2.47-5.97l11.94-11.94C172.78,98.66,172.78,93.34,169.48,90.04z"/>
</svg>
